<?xml version="1.0" standalone="no"?>
<!DOCTYPE svg PUBLIC "-//W3C//DTD SVG 20010904//EN"
 "http://www.w3.org/TR/2001/REC-SVG-20010904/DTD/svg10.dtd">
<svg version="1.0" xmlns="http://www.w3.org/2000/svg"
 width="64.000000pt" height="64.000000pt" viewBox="0 0 64.000000 64.000000"
 preserveAspectRatio="xMidYMid meet">

<g transform="translate(0.000000,64.000000) scale(0.100000,-0.100000)"
fill="#000000" stroke="none">
<path d="M286 589 c-42 -12 -86 -58 -86 -89 0 -24 -3 -26 -35 -22 -41 5 -96
-25 -113 -63 -28 -60 -1 -155 48 -170 16 -5 19 -10 11 -18 -6 -6 -11 -32 -11
-58 0 -58 34 -104 88 -119 44 -12 106 2 122 28 9 16 11 16 20 0 27 -45 135
-41 180 7 27 28 40 116 21 139 -10 12 -8 16 9 21 49 16 77 118 46 173 -18 34
-66 62 -106 62 -29 0 -36 4 -37 21 -5 57 -93 107 -157 88z m64 -265 c0 -8 4
-14 9 -14 15 0 8 -44 -9 -57 -16 -13 -47 -8 -67 13 -13 13 -8 39 11 60 15 16
56 14 56 -2z"/>
</g>
</svg>
